<svg width="15" height="16" viewBox="0 0 15 16" fill="none" xmlns="http://www.w3.org/2000/svg">
<path d="M12.5 14.6667H2.5V13.3334C2.5 12.4493 2.82924 11.6015 3.41529 10.9763C4.00134 10.3512 4.7962 10 5.625 10H9.375C10.2038 10 10.9987 10.3512 11.5847 10.9763C12.1708 11.6015 12.5 12.4493 12.5 13.3334V14.6667ZM7.5 8.66669C7.00754 8.66669 6.51991 8.56322 6.06494 8.36221C5.60997 8.16119 5.19657 7.86655 4.84835 7.49511C4.50013 7.12368 4.22391 6.68272 4.03545 6.19742C3.847 5.71212 3.75 5.19197 3.75 4.66669C3.75 4.1414 3.847 3.62126 4.03545 3.13595C4.22391 2.65065 4.50013 2.20969 4.84835 1.83826C5.19657 1.46683 5.60997 1.17219 6.06494 0.971169C6.51991 0.77015 7.00754 0.666687 7.5 0.666687C8.49456 0.666687 9.44839 1.08811 10.1516 1.83826C10.8549 2.58841 11.25 3.60582 11.25 4.66669C11.25 5.72755 10.8549 6.74497 10.1516 7.49511C9.44839 8.24526 8.49456 8.66669 7.5 8.66669Z" fill="#2D3748"/>
</svg>
