<svg width="17" height="16" viewBox="0 0 17 16" fill="none" xmlns="http://www.w3.org/2000/svg">
<g clip-path="url(#clip0_467_7114)">
<path d="M2.00008 2H15.3334C16.0334 2 16.6667 2.63333 16.6667 3.33333V12.6667C16.6667 13.3667 16.0334 14 15.3334 14H2.00008C1.30008 14 0.666748 13.3667 0.666748 12.6667V3.33333C0.666748 2.63333 1.30008 2 2.00008 2ZM10.0001 4V4.66667H15.3334V4H10.0001ZM10.0001 5.33333V6H15.0001H15.3334V5.33333H10.0001ZM10.0001 6.66667V7.33333H14.6667V6.66667H10.0001ZM6.00008 9.27333C4.66675 9.27333 2.00008 10 2.00008 11.3333V12H10.0001V11.3333C10.0001 10 7.33342 9.27333 6.00008 9.27333ZM6.00008 4C5.46965 4 4.96094 4.21071 4.58587 4.58579C4.2108 4.96086 4.00008 5.46957 4.00008 6C4.00008 6.53043 4.2108 7.03914 4.58587 7.41421C4.96094 7.78929 5.46965 8 6.00008 8C6.53051 8 7.03922 7.78929 7.4143 7.41421C7.78937 7.03914 8.00008 6.53043 8.00008 6C8.00008 5.46957 7.78937 4.96086 7.4143 4.58579C7.03922 4.21071 6.53051 4 6.00008 4Z" fill="black"/>
</g>
<defs>
<clipPath id="clip0_467_7114">
<rect width="16" height="16" fill="white" transform="translate(0.666748)"/>
</clipPath>
</defs>
</svg>
