<svg width="16" height="16" viewBox="0 0 16 16" fill="none" xmlns="http://www.w3.org/2000/svg">
<path d="M7.26722 1.3999L13.8665 2.34324L14.8092 8.94324L8.68122 15.0712C8.5562 15.1962 8.38666 15.2664 8.20988 15.2664C8.03311 15.2664 7.86357 15.1962 7.73855 15.0712L1.13855 8.47124C1.01357 8.34622 0.943359 8.17668 0.943359 7.9999C0.943359 7.82313 1.01357 7.65359 1.13855 7.52857L7.26722 1.3999ZM9.15255 7.05724C9.27639 7.18103 9.42339 7.27922 9.58518 7.3462C9.74696 7.41318 9.92035 7.44763 10.0955 7.4476C10.2706 7.44757 10.4439 7.41305 10.6057 7.34602C10.7675 7.27898 10.9144 7.18074 11.0382 7.0569C11.162 6.93307 11.2602 6.78606 11.3272 6.62428C11.3942 6.46249 11.4286 6.2891 11.4286 6.114C11.4286 5.9389 11.394 5.76552 11.327 5.60376C11.26 5.442 11.1617 5.29503 11.0379 5.17124C10.914 5.04744 10.767 4.94925 10.6053 4.88227C10.4435 4.8153 10.2701 4.78084 10.095 4.78087C9.74135 4.78093 9.40223 4.92147 9.15222 5.17157C8.90221 5.42167 8.76179 5.76084 8.76185 6.11447C8.76191 6.4681 8.90245 6.80723 9.15255 7.05724Z" fill="#2D3748"/>
</svg>
